<?xml version="1.0" encoding="UTF-8"?>
<svg width="121px" height="39px" viewBox="0 0 121 39" version="1.1" xmlns="http://www.w3.org/2000/svg" xmlns:xlink="http://www.w3.org/1999/xlink">
    <!-- Generator: Sketch 52.3 (67297) - http://www.bohemiancoding.com/sketch -->
    <title>Group 4</title>
    <desc>Created with Sketch.</desc>
    <defs>
        <polygon id="path-1" points="88 22 96 22 96 18 88 18"></polygon>
        <filter x="-150.0%" y="-300.0%" width="400.0%" height="700.0%" filterUnits="objectBoundingBox" id="filter-2">
            <feOffset dx="0" dy="0" in="SourceAlpha" result="shadowOffsetOuter1"></feOffset>
            <feGaussianBlur stdDeviation="4" in="shadowOffsetOuter1" result="shadowBlurOuter1"></feGaussianBlur>
            <feColorMatrix values="0 0 0 0 0.333545918   0 0 0 0 0.00562621844   0 0 0 0 0.0777342153  0 0 0 0.251953125 0" type="matrix" in="shadowBlurOuter1"></feColorMatrix>
        </filter>
        <linearGradient x1="0.600614162%" y1="0.600614162%" x2="100%" y2="100%" id="linearGradient-3">
            <stop stop-color="#FF3B55" offset="0%"></stop>
            <stop stop-color="#FF7675" offset="100%"></stop>
        </linearGradient>
    </defs>
    <g id="Page-1" stroke="none" stroke-width="1" fill="none" fill-rule="evenodd">
        <g id="Group-4">
            <path d="M36.524,20 C36.5240673,24.0609756 35.46,26.3056 38,31 C39.543997,33.8535982 42.7701346,36.097561 44.856,37 C46.9418654,37.902439 51,39 57,38.9999 L65,39 C65,39 60.7756113,38.1939028 56,37 C52,36 46.3228978,30.9667675 44.856,29 C43.5098462,27.195122 41.9999,22 41.9999,20 C39.4866692,20 38.5432308,20 36.524,20 Z" id="Fill-17" fill="#CD0E38"></path>
            <path d="M89.9015,37.2619 C90.1285,38.2679 91.2305,38.9999 92.5165,38.9999 L99.0005,38.9999 C100.6555,38.9999 102.0005,37.9999 101.0005,32.9999 C99.1925,23.9599 96.6865,1.7379 96.6865,1.7379 C96.4595,0.7319 95.3575,-0.0001 94.0705,-0.0001 L90.6585,-0.0001 C89.0025,-0.0001 87.7505,1.1899 88.0425,2.4839 L89.9015,37.2619 Z" id="Fill-11" fill="#CD0E38"></path>
            <path d="M116.032279,28.262 C116.259279,29.268 117.361279,30 118.647279,30 L119.131279,30 C120.786279,30 120.131279,29 119.131279,24 C117.323279,14.96 113.817279,1.738 113.817279,1.738 C113.590279,0.732 112.488279,1.24344979e-14 111.201279,1.24344979e-14 L107.789279,1.24344979e-14 C106.133279,1.24344979e-14 104.881279,1.19 105.173279,2.484 L116.032279,28.262 Z" id="Fill-11" fill="#CD0E38"></path>
            <path d="M77.5366,23.8467 C77.0486,24.8197 76.3706,25.5707 75.5016,26.0987 C74.6326,26.6277 73.6366,26.8927 72.5136,26.8927 L68.5716,26.8927 L68.5716,14.0757 L72.2276,14.0757 C73.3926,14.0757 74.4316,14.3457 75.3426,14.8847 C76.2546,15.4247 76.9696,16.1797 77.4886,17.1537 C78.0086,18.1257 78.2676,19.2467 78.2676,20.5157 C78.2676,21.7637 78.0236,22.8737 77.5366,23.8467 M82.7186,14.6627 C81.7226,12.9817 80.3286,11.6757 78.5376,10.7447 C76.7466,9.8147 74.6856,9.3487 72.3546,9.3487 L62.7536,9.3487 L62.7536,31.5877 L72.1326,31.5877 C74.5056,31.5877 76.6096,31.1217 78.4426,30.1917 C80.2756,29.2617 81.6956,27.9497 82.7026,26.2577 C83.7086,24.5657 84.2126,22.6307 84.2126,20.4517 C84.2126,18.2737 83.7146,16.3447 82.7186,14.6627" id="Fill-1" fill="#000000"></path>
            <path d="M33.0139,26.1783 C32.0919,26.7603 31.0799,27.0503 29.9789,27.0503 C28.8759,27.0503 27.8589,26.7603 26.9259,26.1783 C25.9939,25.5973 25.2469,24.8033 24.6849,23.7993 C24.1239,22.7953 23.8429,21.6793 23.8429,20.4523 C23.8429,19.2473 24.1179,18.1413 24.6699,17.1373 C25.2199,16.1323 25.9669,15.3443 26.9109,14.7743 C27.8539,14.2023 28.8759,13.9173 29.9789,13.9173 C31.0799,13.9173 32.0919,14.2023 33.0139,14.7743 C33.9359,15.3443 34.6619,16.1323 35.1919,17.1373 C35.7219,18.1413 35.9869,19.2473 35.9869,20.4523 C35.9869,21.6793 35.7219,22.7953 35.1919,23.7993 C34.6619,24.8033 33.9359,25.5973 33.0139,26.1783 Z M36.1269,10.4913 C34.3009,9.4973 32.2589,9.0003 29.9999,9.0003 C27.7409,9.0003 25.6989,9.4973 23.8739,10.4913 C22.0469,11.4853 20.6119,12.8493 19.5669,14.5833 C18.5229,16.3183 17.9999,18.2633 17.9999,20.4213 C17.9999,22.5993 18.5229,24.5713 19.5669,26.3373 C20.6119,28.1033 22.0469,29.4883 23.8739,30.4933 C25.6989,31.4973 27.7409,32.0003 29.9999,32.0003 C32.2589,32.0003 34.3009,31.4923 36.1269,30.4773 C37.9529,29.4623 39.3879,28.0763 40.4329,26.3213 C41.4779,24.5663 41.9999,22.5993 41.9999,20.4213 C41.9999,18.2633 41.4779,16.3183 40.4329,14.5833 C39.3879,12.8493 37.9529,11.4853 36.1269,10.4913 Z" id="Combined-Shape" fill="#000000"></path>
            <g id="Fill-5">
                <use fill="black" fill-opacity="1" filter="url(#filter-2)" xlink:href="#path-1"></use>
                <use fill="#000000" fill-rule="evenodd" xlink:href="#path-1"></use>
            </g>
            <polygon id="Fill-7" fill="#000000" points="44.856 9.3491 50.674 9.3491 50.674 26.6391 60.115 26.6391 60.115 31.5871 44.856 31.5871"></polygon>
            <polygon id="Fill-8" fill="#000000" points="7.10542736e-15 9.3491 16.658 9.3491 16.626 13.9801 5.817 13.9801 5.817 18.9301 15.8 18.9301 15.8 23.5611 5.817 23.5611 5.817 31.5871 7.10542736e-15 31.5871"></polygon>
            <path d="M106.5986,22.4194 C106.5986,23.8154 107.0126,24.9364 107.8386,25.7824 C108.6646,26.6274 109.7146,27.0514 110.9866,27.0514 C112.2366,27.0514 113.2476,26.6334 114.0226,25.7974 C114.7956,24.9624 115.1826,23.8364 115.1826,22.4194 L115.1826,9.3494 L120.9996,9.3494 L120.9996,22.4194 C120.9996,24.3434 120.5916,26.0304 119.7766,27.4794 C118.9596,28.9284 117.7946,30.0434 116.2796,30.8264 C114.7636,31.6084 112.9896,32.0004 110.9536,32.0004 C108.9196,32.0004 107.1336,31.6084 105.5976,30.8264 C104.0616,30.0434 102.8736,28.9284 102.0366,27.4794 C101.2006,26.0304 100.7816,24.3434 100.7816,22.4194 L100.7816,9.3494 L106.5986,9.3494 L106.5986,22.4194 Z" id="Fill-9" fill="#000000"></path>
            <path d="M66,39 C70,39 81,28.5365854 84.347,18.0731707 C87.302,8.83587805 92.139,0 94,0 L86,0 C82.278,0 79,9.51219512 75.042,19.9756098 C72.833,25.8151463 62.59,39 56,39" id="Fill-13" fill="url(#linearGradient-3)"></path>
            <path d="M110,0 L107.658,0 L106,0 L105,0 C105.031,0 105.064,0.002925 105.096,0.002925 C101.832,0.026325 100.759,0.31395 98,3.9 C95,7.8 94.266,10.794225 92,18.525 C90,25.35 86,39 91,39 L99,39 C95,39 99,25.35 102,16.575 C104.482,9.3132 108.053,2.058225 112,0" id="Fill-15" fill="url(#linearGradient-3)"></path>
            <path d="M112,29 L120.9996,39 L120.9996,23 C120.333333,26.4285714 119.000133,28.4285714 117,29 C114.999867,29.5714286 113.3332,29.5714286 112,29 Z" id="Path-8" fill="url(#linearGradient-3)"></path>
        </g>
    </g>
</svg>