<?xml version="1.0" encoding="UTF-8"?>
<svg width="992px" height="313px" viewBox="0 0 992 313" version="1.1" xmlns="http://www.w3.org/2000/svg" xmlns:xlink="http://www.w3.org/1999/xlink">
    <!-- Generator: Sketch 52.3 (67297) - http://www.bohemiancoding.com/sketch -->
    <title>Group 6</title>
    <desc>Created with Sketch.</desc>
    <defs>
        <path d="M4.192,160 C20.3458462,160 27.8933538,160 47.9992,160 C47.9992,176 60.0787692,217.560976 70.848,232 C82.5831821,247.73414 128,288 160,296 C198.20489,305.551223 232,312 232,312 L168,311.9992 C120,312 87.5349231,303.219512 70.848,296 C54.1610769,288.780488 28.3519761,270.828786 16,248 C-4.32,210.4448 4.19253846,192.487805 4.192,160 Z M431.212,298.0952 L408.34,19.8712 C406.004,9.5192 416.02,-0.0008 429.268,-0.0008 L456.564,-0.0008 C466.86,-0.0008 475.676,5.8552 477.492,13.9032 C477.492,13.9032 501.244,184 504.004,263.9992 C505.721234,313.773611 501.244,311.9992 488.004,311.9992 L452.132,311.9992 C441.844,311.9992 433.028,306.1432 431.212,298.0952 Z M648,224 L537.386236,19.872 C535.050236,9.52 545.066236,0 558.314236,0 L585.610236,0 C595.906236,0 603.610216,8.1867216 606.538236,13.904 C624,48 650.184226,126.091318 672,192 C680.826667,218.666667 683.492267,232 679.9968,232 C669.7088,232 649.816,232.048 648,224 Z" id="path-1"></path>
        <filter x="-12.5%" y="-13.0%" width="125.0%" height="126.1%" filterUnits="objectBoundingBox" id="filter-3">
            <feGaussianBlur stdDeviation="8" in="SourceGraphic"></feGaussianBlur>
        </filter>
        <filter x="-14.3%" y="-7.7%" width="128.6%" height="115.4%" filterUnits="objectBoundingBox" id="filter-4">
            <feGaussianBlur stdDeviation="8" in="SourceGraphic"></feGaussianBlur>
        </filter>
        <filter x="-9.7%" y="-8.3%" width="119.4%" height="116.7%" filterUnits="objectBoundingBox" id="filter-5">
            <feGaussianBlur stdDeviation="8" in="SourceGraphic"></feGaussianBlur>
        </filter>
        <linearGradient x1="42.162137%" y1="48.8280435%" x2="100%" y2="100%" id="linearGradient-6">
            <stop stop-color="#F03C4E" offset="0%"></stop>
            <stop stop-color="#F56A49" offset="43.05681%"></stop>
            <stop stop-color="#FFE14C" offset="100%"></stop>
        </linearGradient>
        <path d="M80,312 L-2.84217094e-14,312 C52.72,312 120,224 152.336,159.804878 C192.428012,80.2121152 202.224,0 232,0 L296,0 C281.112,0 255.387444,72.6662582 226.776,144.585366 C192,232 112,312 80,312 Z M410.050016,0 L424,0 C396.469706,16.4658 371.562009,74.5056 354.250079,132.6 C333.325102,202.8 305.425134,312 333.325102,312 L277.525165,312 C242.650204,312 267.788176,199.793302 284.500157,148.2 C304,88 309.6,64 326.35011,31.2 C343.395942,-2.17908217 353.07828,0.2106 375.844654,0.0234 C375.621454,0.0234 375.39128,0 375.175055,0 L382.150047,0 L393.714584,0 L410.050016,0 Z M543.682831,288.711334 L465.647439,219.961951 C479.969339,218.910571 493.12225,215.462406 505.10617,209.617458 C517.090091,203.772509 527.905022,195.530776 537.550963,184.892259 L543.682831,288.711334 Z" id="path-7"></path>
        <text id="text-9" font-family="DIN2014-Narrow, DIN 2014 Narrow" font-size="80" font-style="condensed" font-weight="normal" letter-spacing="-3.9000001" fill="#3B3F4B" fill-opacity="0.59728827">
            <tspan x="64.1040101" y="316.080606">A</tspan>
        </text>
        <filter x="-5.7%" y="-2.0%" width="120.0%" height="103.9%" filterUnits="objectBoundingBox" id="filter-10">
            <feGaussianBlur stdDeviation="1.5" in="SourceAlpha" result="shadowBlurInner1"></feGaussianBlur>
            <feOffset dx="-1" dy="-1" in="shadowBlurInner1" result="shadowOffsetInner1"></feOffset>
            <feComposite in="shadowOffsetInner1" in2="SourceAlpha" operator="arithmetic" k2="-1" k3="1" result="shadowInnerInner1"></feComposite>
            <feColorMatrix values="0 0 0 0 0   0 0 0 0 0   0 0 0 0 0  0 0 0 0.7 0" type="matrix" in="shadowInnerInner1"></feColorMatrix>
        </filter>
        <filter x="-5.7%" y="-2.0%" width="120.0%" height="103.9%" filterUnits="objectBoundingBox" id="filter-11">
            <feGaussianBlur stdDeviation="1.5" in="SourceAlpha" result="shadowBlurInner1"></feGaussianBlur>
            <feOffset dx="-1" dy="-1" in="shadowBlurInner1" result="shadowOffsetInner1"></feOffset>
            <feComposite in="shadowOffsetInner1" in2="SourceAlpha" operator="arithmetic" k2="-1" k3="1" result="shadowInnerInner1"></feComposite>
            <feColorMatrix values="0 0 0 0 0   0 0 0 0 0   0 0 0 0 0  0 0 0 0.7 0" type="matrix" in="shadowInnerInner1"></feColorMatrix>
        </filter>
        <text id="text-12" font-family="DIN2014-Narrow, DIN 2014 Narrow" font-size="85" font-style="condensed" font-weight="normal" letter-spacing="-3.526596" fill="#3B3F4B" fill-opacity="0.59728827">
            <tspan x="277.90705" y="327.97401">Q</tspan>
        </text>
        <filter x="-5.3%" y="-1.9%" width="121.1%" height="103.7%" filterUnits="objectBoundingBox" id="filter-13">
            <feGaussianBlur stdDeviation="1.5" in="SourceAlpha" result="shadowBlurInner1"></feGaussianBlur>
            <feOffset dx="-1" dy="-1" in="shadowBlurInner1" result="shadowOffsetInner1"></feOffset>
            <feComposite in="shadowOffsetInner1" in2="SourceAlpha" operator="arithmetic" k2="-1" k3="1" result="shadowInnerInner1"></feComposite>
            <feColorMatrix values="0 0 0 0 0   0 0 0 0 0   0 0 0 0 0  0 0 0 0.7 0" type="matrix" in="shadowInnerInner1"></feColorMatrix>
        </filter>
        <filter x="-5.3%" y="-1.9%" width="121.1%" height="103.7%" filterUnits="objectBoundingBox" id="filter-14">
            <feGaussianBlur stdDeviation="1.5" in="SourceAlpha" result="shadowBlurInner1"></feGaussianBlur>
            <feOffset dx="-1" dy="-1" in="shadowBlurInner1" result="shadowOffsetInner1"></feOffset>
            <feComposite in="shadowOffsetInner1" in2="SourceAlpha" operator="arithmetic" k2="-1" k3="1" result="shadowInnerInner1"></feComposite>
            <feColorMatrix values="0 0 0 0 0   0 0 0 0 0   0 0 0 0 0  0 0 0 0.7 0" type="matrix" in="shadowInnerInner1"></feColorMatrix>
        </filter>
        <text id="text-15" font-family="DIN2014-Narrow, DIN 2014 Narrow" font-size="94" font-style="condensed" font-weight="normal" letter-spacing="-3.9000001" fill="#3B3F4B" fill-opacity="0.59728827">
            <tspan x="274.873819" y="278.370744">D</tspan>
        </text>
        <filter x="-4.8%" y="-1.7%" width="111.9%" height="103.3%" filterUnits="objectBoundingBox" id="filter-16">
            <feGaussianBlur stdDeviation="1.5" in="SourceAlpha" result="shadowBlurInner1"></feGaussianBlur>
            <feOffset dx="-1" dy="-1" in="shadowBlurInner1" result="shadowOffsetInner1"></feOffset>
            <feComposite in="shadowOffsetInner1" in2="SourceAlpha" operator="arithmetic" k2="-1" k3="1" result="shadowInnerInner1"></feComposite>
            <feColorMatrix values="0 0 0 0 0   0 0 0 0 0   0 0 0 0 0  0 0 0 0.7 0" type="matrix" in="shadowInnerInner1"></feColorMatrix>
        </filter>
        <filter x="-4.8%" y="-1.7%" width="111.9%" height="103.3%" filterUnits="objectBoundingBox" id="filter-17">
            <feGaussianBlur stdDeviation="1.5" in="SourceAlpha" result="shadowBlurInner1"></feGaussianBlur>
            <feOffset dx="-1" dy="-1" in="shadowBlurInner1" result="shadowOffsetInner1"></feOffset>
            <feComposite in="shadowOffsetInner1" in2="SourceAlpha" operator="arithmetic" k2="-1" k3="1" result="shadowInnerInner1"></feComposite>
            <feColorMatrix values="0 0 0 0 0   0 0 0 0 0   0 0 0 0 0  0 0 0 0.7 0" type="matrix" in="shadowInnerInner1"></feColorMatrix>
        </filter>
        <text id="text-18" font-family="DIN2014-Narrow, DIN 2014 Narrow" font-size="85" font-style="condensed" font-weight="normal" letter-spacing="-3.72472" fill="#3B3F4B" fill-opacity="0.59728827">
            <tspan x="103.725663" y="284.172086">R</tspan>
        </text>
        <filter x="-5.3%" y="-1.9%" width="115.8%" height="103.7%" filterUnits="objectBoundingBox" id="filter-19">
            <feGaussianBlur stdDeviation="1.5" in="SourceAlpha" result="shadowBlurInner1"></feGaussianBlur>
            <feOffset dx="-1" dy="-1" in="shadowBlurInner1" result="shadowOffsetInner1"></feOffset>
            <feComposite in="shadowOffsetInner1" in2="SourceAlpha" operator="arithmetic" k2="-1" k3="1" result="shadowInnerInner1"></feComposite>
            <feColorMatrix values="0 0 0 0 0   0 0 0 0 0   0 0 0 0 0  0 0 0 0.7 0" type="matrix" in="shadowInnerInner1"></feColorMatrix>
        </filter>
        <filter x="-5.3%" y="-1.9%" width="115.8%" height="103.7%" filterUnits="objectBoundingBox" id="filter-20">
            <feGaussianBlur stdDeviation="1.5" in="SourceAlpha" result="shadowBlurInner1"></feGaussianBlur>
            <feOffset dx="-1" dy="-1" in="shadowBlurInner1" result="shadowOffsetInner1"></feOffset>
            <feComposite in="shadowOffsetInner1" in2="SourceAlpha" operator="arithmetic" k2="-1" k3="1" result="shadowInnerInner1"></feComposite>
            <feColorMatrix values="0 0 0 0 0   0 0 0 0 0   0 0 0 0 0  0 0 0 0.7 0" type="matrix" in="shadowInnerInner1"></feColorMatrix>
        </filter>
        <text id="text-21" font-family="DIN2014-Narrow, DIN 2014 Narrow" font-size="89" font-style="condensed" font-weight="normal" letter-spacing="-3.9000001" fill="#3B3F4B" fill-opacity="0.59728827">
            <tspan x="136.489959" y="240.993116">N</tspan>
        </text>
        <filter x="-4.8%" y="-1.8%" width="109.5%" height="103.5%" filterUnits="objectBoundingBox" id="filter-22">
            <feGaussianBlur stdDeviation="1.5" in="SourceAlpha" result="shadowBlurInner1"></feGaussianBlur>
            <feOffset dx="-1" dy="-1" in="shadowBlurInner1" result="shadowOffsetInner1"></feOffset>
            <feComposite in="shadowOffsetInner1" in2="SourceAlpha" operator="arithmetic" k2="-1" k3="1" result="shadowInnerInner1"></feComposite>
            <feColorMatrix values="0 0 0 0 0   0 0 0 0 0   0 0 0 0 0  0 0 0 0.7 0" type="matrix" in="shadowInnerInner1"></feColorMatrix>
        </filter>
        <filter x="-4.8%" y="-1.8%" width="109.5%" height="103.5%" filterUnits="objectBoundingBox" id="filter-23">
            <feGaussianBlur stdDeviation="1.5" in="SourceAlpha" result="shadowBlurInner1"></feGaussianBlur>
            <feOffset dx="-1" dy="-1" in="shadowBlurInner1" result="shadowOffsetInner1"></feOffset>
            <feComposite in="shadowOffsetInner1" in2="SourceAlpha" operator="arithmetic" k2="-1" k3="1" result="shadowInnerInner1"></feComposite>
            <feColorMatrix values="0 0 0 0 0   0 0 0 0 0   0 0 0 0 0  0 0 0 0.7 0" type="matrix" in="shadowInnerInner1"></feColorMatrix>
        </filter>
        <text id="text-24" font-family="DIN2014-Narrow, DIN 2014 Narrow" font-size="89" font-style="condensed" font-weight="normal" letter-spacing="-3.9000001" fill="#3B3F4B" fill-opacity="0.59728827">
            <tspan x="168.597448" y="190.5">D</tspan>
        </text>
        <filter x="-5.0%" y="-1.8%" width="110.0%" height="103.5%" filterUnits="objectBoundingBox" id="filter-25">
            <feGaussianBlur stdDeviation="1.5" in="SourceAlpha" result="shadowBlurInner1"></feGaussianBlur>
            <feOffset dx="-1" dy="-1" in="shadowBlurInner1" result="shadowOffsetInner1"></feOffset>
            <feComposite in="shadowOffsetInner1" in2="SourceAlpha" operator="arithmetic" k2="-1" k3="1" result="shadowInnerInner1"></feComposite>
            <feColorMatrix values="0 0 0 0 0   0 0 0 0 0   0 0 0 0 0  0 0 0 0.7 0" type="matrix" in="shadowInnerInner1"></feColorMatrix>
        </filter>
        <filter x="-5.0%" y="-1.8%" width="110.0%" height="103.5%" filterUnits="objectBoundingBox" id="filter-26">
            <feGaussianBlur stdDeviation="1.5" in="SourceAlpha" result="shadowBlurInner1"></feGaussianBlur>
            <feOffset dx="-1" dy="-1" in="shadowBlurInner1" result="shadowOffsetInner1"></feOffset>
            <feComposite in="shadowOffsetInner1" in2="SourceAlpha" operator="arithmetic" k2="-1" k3="1" result="shadowInnerInner1"></feComposite>
            <feColorMatrix values="0 0 0 0 0   0 0 0 0 0   0 0 0 0 0  0 0 0 0.7 0" type="matrix" in="shadowInnerInner1"></feColorMatrix>
        </filter>
        <text id="text-27" font-family="DIN2014-Narrow, DIN 2014 Narrow" font-size="91" font-style="condensed" font-weight="normal" letter-spacing="-3.9000001" fill="#3B3F4B" fill-opacity="0.59728827">
            <tspan x="288.296296" y="223.840925">G</tspan>
        </text>
        <filter x="-4.9%" y="-1.7%" width="109.8%" height="103.4%" filterUnits="objectBoundingBox" id="filter-28">
            <feGaussianBlur stdDeviation="1.5" in="SourceAlpha" result="shadowBlurInner1"></feGaussianBlur>
            <feOffset dx="-1" dy="-1" in="shadowBlurInner1" result="shadowOffsetInner1"></feOffset>
            <feComposite in="shadowOffsetInner1" in2="SourceAlpha" operator="arithmetic" k2="-1" k3="1" result="shadowInnerInner1"></feComposite>
            <feColorMatrix values="0 0 0 0 0   0 0 0 0 0   0 0 0 0 0  0 0 0 0.7 0" type="matrix" in="shadowInnerInner1"></feColorMatrix>
        </filter>
        <filter x="-4.9%" y="-1.7%" width="109.8%" height="103.4%" filterUnits="objectBoundingBox" id="filter-29">
            <feGaussianBlur stdDeviation="1.5" in="SourceAlpha" result="shadowBlurInner1"></feGaussianBlur>
            <feOffset dx="-1" dy="-1" in="shadowBlurInner1" result="shadowOffsetInner1"></feOffset>
            <feComposite in="shadowOffsetInner1" in2="SourceAlpha" operator="arithmetic" k2="-1" k3="1" result="shadowInnerInner1"></feComposite>
            <feColorMatrix values="0 0 0 0 0   0 0 0 0 0   0 0 0 0 0  0 0 0 0.7 0" type="matrix" in="shadowInnerInner1"></feColorMatrix>
        </filter>
        <text id="text-30" font-family="DIN2014-Narrow, DIN 2014 Narrow" font-size="91" font-style="condensed" font-weight="normal" letter-spacing="-3.9000001" fill="#3B3F4B" fill-opacity="0.59728827">
            <tspan x="301.314668" y="163.984614">H</tspan>
        </text>
        <filter x="-4.7%" y="-1.7%" width="109.3%" height="103.4%" filterUnits="objectBoundingBox" id="filter-31">
            <feGaussianBlur stdDeviation="1.5" in="SourceAlpha" result="shadowBlurInner1"></feGaussianBlur>
            <feOffset dx="-1" dy="-1" in="shadowBlurInner1" result="shadowOffsetInner1"></feOffset>
            <feComposite in="shadowOffsetInner1" in2="SourceAlpha" operator="arithmetic" k2="-1" k3="1" result="shadowInnerInner1"></feComposite>
            <feColorMatrix values="0 0 0 0 0   0 0 0 0 0   0 0 0 0 0  0 0 0 0.7 0" type="matrix" in="shadowInnerInner1"></feColorMatrix>
        </filter>
        <filter x="-4.7%" y="-1.7%" width="109.3%" height="103.4%" filterUnits="objectBoundingBox" id="filter-32">
            <feGaussianBlur stdDeviation="1.5" in="SourceAlpha" result="shadowBlurInner1"></feGaussianBlur>
            <feOffset dx="-1" dy="-1" in="shadowBlurInner1" result="shadowOffsetInner1"></feOffset>
            <feComposite in="shadowOffsetInner1" in2="SourceAlpha" operator="arithmetic" k2="-1" k3="1" result="shadowInnerInner1"></feComposite>
            <feColorMatrix values="0 0 0 0 0   0 0 0 0 0   0 0 0 0 0  0 0 0 0.7 0" type="matrix" in="shadowInnerInner1"></feColorMatrix>
        </filter>
        <text id="text-33" font-family="DIN2014-Narrow, DIN 2014 Narrow" font-size="91" font-style="condensed" font-weight="normal" letter-spacing="-3.9000001" fill="#3B3F4B" fill-opacity="0.59728827">
            <tspan x="320.387021" y="109.11519">K</tspan>
        </text>
        <filter x="-4.5%" y="-1.7%" width="118.2%" height="103.4%" filterUnits="objectBoundingBox" id="filter-34">
            <feGaussianBlur stdDeviation="1.5" in="SourceAlpha" result="shadowBlurInner1"></feGaussianBlur>
            <feOffset dx="-1" dy="-1" in="shadowBlurInner1" result="shadowOffsetInner1"></feOffset>
            <feComposite in="shadowOffsetInner1" in2="SourceAlpha" operator="arithmetic" k2="-1" k3="1" result="shadowInnerInner1"></feComposite>
            <feColorMatrix values="0 0 0 0 0   0 0 0 0 0   0 0 0 0 0  0 0 0 0.7 0" type="matrix" in="shadowInnerInner1"></feColorMatrix>
        </filter>
        <filter x="-4.5%" y="-1.7%" width="118.2%" height="103.4%" filterUnits="objectBoundingBox" id="filter-35">
            <feGaussianBlur stdDeviation="1.5" in="SourceAlpha" result="shadowBlurInner1"></feGaussianBlur>
            <feOffset dx="-1" dy="-1" in="shadowBlurInner1" result="shadowOffsetInner1"></feOffset>
            <feComposite in="shadowOffsetInner1" in2="SourceAlpha" operator="arithmetic" k2="-1" k3="1" result="shadowInnerInner1"></feComposite>
            <feColorMatrix values="0 0 0 0 0   0 0 0 0 0   0 0 0 0 0  0 0 0 0.7 0" type="matrix" in="shadowInnerInner1"></feColorMatrix>
        </filter>
        <text id="text-36" font-family="DIN2014-Narrow, DIN 2014 Narrow" font-size="94" font-style="condensed" font-weight="normal" letter-spacing="-3.9000001" fill="#3B3F4B" fill-opacity="0.59728827">
            <tspan x="190.361451" y="136.889559">G</tspan>
        </text>
        <filter x="-4.8%" y="-1.7%" width="111.9%" height="103.3%" filterUnits="objectBoundingBox" id="filter-37">
            <feGaussianBlur stdDeviation="1.5" in="SourceAlpha" result="shadowBlurInner1"></feGaussianBlur>
            <feOffset dx="-1" dy="-1" in="shadowBlurInner1" result="shadowOffsetInner1"></feOffset>
            <feComposite in="shadowOffsetInner1" in2="SourceAlpha" operator="arithmetic" k2="-1" k3="1" result="shadowInnerInner1"></feComposite>
            <feColorMatrix values="0 0 0 0 0   0 0 0 0 0   0 0 0 0 0  0 0 0 0.7 0" type="matrix" in="shadowInnerInner1"></feColorMatrix>
        </filter>
        <filter x="-4.8%" y="-1.7%" width="111.9%" height="103.3%" filterUnits="objectBoundingBox" id="filter-38">
            <feGaussianBlur stdDeviation="1.5" in="SourceAlpha" result="shadowBlurInner1"></feGaussianBlur>
            <feOffset dx="-1" dy="-1" in="shadowBlurInner1" result="shadowOffsetInner1"></feOffset>
            <feComposite in="shadowOffsetInner1" in2="SourceAlpha" operator="arithmetic" k2="-1" k3="1" result="shadowInnerInner1"></feComposite>
            <feColorMatrix values="0 0 0 0 0   0 0 0 0 0   0 0 0 0 0  0 0 0 0.7 0" type="matrix" in="shadowInnerInner1"></feColorMatrix>
        </filter>
        <text id="text-39" font-family="DIN2014-Narrow, DIN 2014 Narrow" font-size="94" font-style="condensed" font-weight="normal" letter-spacing="-3.9000001" fill="#3B3F4B" fill-opacity="0.59728827">
            <tspan x="210.878833" y="80.9832514">C</tspan>
        </text>
        <filter x="-5.0%" y="-1.7%" width="115.0%" height="103.3%" filterUnits="objectBoundingBox" id="filter-40">
            <feGaussianBlur stdDeviation="1.5" in="SourceAlpha" result="shadowBlurInner1"></feGaussianBlur>
            <feOffset dx="-1" dy="-1" in="shadowBlurInner1" result="shadowOffsetInner1"></feOffset>
            <feComposite in="shadowOffsetInner1" in2="SourceAlpha" operator="arithmetic" k2="-1" k3="1" result="shadowInnerInner1"></feComposite>
            <feColorMatrix values="0 0 0 0 0   0 0 0 0 0   0 0 0 0 0  0 0 0 0.7 0" type="matrix" in="shadowInnerInner1"></feColorMatrix>
        </filter>
        <filter x="-5.0%" y="-1.7%" width="115.0%" height="103.3%" filterUnits="objectBoundingBox" id="filter-41">
            <feGaussianBlur stdDeviation="1.5" in="SourceAlpha" result="shadowBlurInner1"></feGaussianBlur>
            <feOffset dx="-1" dy="-1" in="shadowBlurInner1" result="shadowOffsetInner1"></feOffset>
            <feComposite in="shadowOffsetInner1" in2="SourceAlpha" operator="arithmetic" k2="-1" k3="1" result="shadowInnerInner1"></feComposite>
            <feColorMatrix values="0 0 0 0 0   0 0 0 0 0   0 0 0 0 0  0 0 0 0.7 0" type="matrix" in="shadowInnerInner1"></feColorMatrix>
        </filter>
        <text id="text-42" font-family="DIN2014-Narrow, DIN 2014 Narrow" font-size="94" font-style="condensed" font-weight="normal" letter-spacing="-3.9000001" fill="#3B3F4B" fill-opacity="0.59728827">
            <tspan x="242.819214" y="32.4063078">E</tspan>
        </text>
        <filter x="-5.3%" y="-1.7%" width="113.2%" height="103.3%" filterUnits="objectBoundingBox" id="filter-43">
            <feGaussianBlur stdDeviation="1.5" in="SourceAlpha" result="shadowBlurInner1"></feGaussianBlur>
            <feOffset dx="-1" dy="-1" in="shadowBlurInner1" result="shadowOffsetInner1"></feOffset>
            <feComposite in="shadowOffsetInner1" in2="SourceAlpha" operator="arithmetic" k2="-1" k3="1" result="shadowInnerInner1"></feComposite>
            <feColorMatrix values="0 0 0 0 0   0 0 0 0 0   0 0 0 0 0  0 0 0 0.7 0" type="matrix" in="shadowInnerInner1"></feColorMatrix>
        </filter>
        <filter x="-5.3%" y="-1.7%" width="113.2%" height="103.3%" filterUnits="objectBoundingBox" id="filter-44">
            <feGaussianBlur stdDeviation="1.5" in="SourceAlpha" result="shadowBlurInner1"></feGaussianBlur>
            <feOffset dx="-1" dy="-1" in="shadowBlurInner1" result="shadowOffsetInner1"></feOffset>
            <feComposite in="shadowOffsetInner1" in2="SourceAlpha" operator="arithmetic" k2="-1" k3="1" result="shadowInnerInner1"></feComposite>
            <feColorMatrix values="0 0 0 0 0   0 0 0 0 0   0 0 0 0 0  0 0 0 0.7 0" type="matrix" in="shadowInnerInner1"></feColorMatrix>
        </filter>
        <text id="text-45" font-family="DIN2014-Narrow, DIN 2014 Narrow" font-size="94" font-style="condensed" font-weight="normal" letter-spacing="-3.9000001" fill="#3B3F4B" fill-opacity="0.59728827">
            <tspan x="345.689287" y="58.717482">L</tspan>
        </text>
        <filter x="-5.7%" y="-1.7%" width="122.9%" height="103.3%" filterUnits="objectBoundingBox" id="filter-46">
            <feGaussianBlur stdDeviation="1.5" in="SourceAlpha" result="shadowBlurInner1"></feGaussianBlur>
            <feOffset dx="-1" dy="-1" in="shadowBlurInner1" result="shadowOffsetInner1"></feOffset>
            <feComposite in="shadowOffsetInner1" in2="SourceAlpha" operator="arithmetic" k2="-1" k3="1" result="shadowInnerInner1"></feComposite>
            <feColorMatrix values="0 0 0 0 0   0 0 0 0 0   0 0 0 0 0  0 0 0 0.7 0" type="matrix" in="shadowInnerInner1"></feColorMatrix>
        </filter>
        <filter x="-5.7%" y="-1.7%" width="122.9%" height="103.3%" filterUnits="objectBoundingBox" id="filter-47">
            <feGaussianBlur stdDeviation="1.5" in="SourceAlpha" result="shadowBlurInner1"></feGaussianBlur>
            <feOffset dx="-1" dy="-1" in="shadowBlurInner1" result="shadowOffsetInner1"></feOffset>
            <feComposite in="shadowOffsetInner1" in2="SourceAlpha" operator="arithmetic" k2="-1" k3="1" result="shadowInnerInner1"></feComposite>
            <feColorMatrix values="0 0 0 0 0   0 0 0 0 0   0 0 0 0 0  0 0 0 0.7 0" type="matrix" in="shadowInnerInner1"></feColorMatrix>
        </filter>
        <text id="text-48" font-family="DIN2014-Narrow, DIN 2014 Narrow" font-size="94" font-style="condensed" font-weight="normal" letter-spacing="-3.9000001" fill="#3B3F4B" fill-opacity="0.59728827">
            <tspan x="375.862687" y="26.2978252">I</tspan>
        </text>
        <filter x="-4.3%" y="-1.7%" width="108.7%" height="103.3%" filterUnits="objectBoundingBox" id="filter-49">
            <feGaussianBlur stdDeviation="1.5" in="SourceAlpha" result="shadowBlurInner1"></feGaussianBlur>
            <feOffset dx="-1" dy="-1" in="shadowBlurInner1" result="shadowOffsetInner1"></feOffset>
            <feComposite in="shadowOffsetInner1" in2="SourceAlpha" operator="arithmetic" k2="-1" k3="1" result="shadowInnerInner1"></feComposite>
            <feColorMatrix values="0 0 0 0 0   0 0 0 0 0   0 0 0 0 0  0 0 0 0.7 0" type="matrix" in="shadowInnerInner1"></feColorMatrix>
        </filter>
        <filter x="-4.3%" y="-1.7%" width="108.7%" height="103.3%" filterUnits="objectBoundingBox" id="filter-50">
            <feGaussianBlur stdDeviation="1.5" in="SourceAlpha" result="shadowBlurInner1"></feGaussianBlur>
            <feOffset dx="-1" dy="-1" in="shadowBlurInner1" result="shadowOffsetInner1"></feOffset>
            <feComposite in="shadowOffsetInner1" in2="SourceAlpha" operator="arithmetic" k2="-1" k3="1" result="shadowInnerInner1"></feComposite>
            <feColorMatrix values="0 0 0 0 0   0 0 0 0 0   0 0 0 0 0  0 0 0 0.7 0" type="matrix" in="shadowInnerInner1"></feColorMatrix>
        </filter>
    </defs>
    <g id="Page-1" stroke="none" stroke-width="1" fill="none" fill-rule="evenodd">
        <g id="Group-6" transform="translate(0.000000, 0.500000)">
            <g id="Combined-Shape-+-Fill-15-+-Fill-13-Mask" transform="translate(288.000000, 0.000000)">
                <mask id="mask-2" fill="white">
                    <use xlink:href="#path-1"></use>
                </mask>
                <use id="Mask" fill="#990B2A" xlink:href="#path-1"></use>
                <path d="M-15.8888,217.4264 C-23.2648,222.0824 -31.3608,224.4024 -40.1688,224.4024 C-48.9928,224.4024 -57.1288,222.0824 -64.5928,217.4264 C-72.0488,212.7784 -78.0248,206.4264 -82.5208,198.3944 C-87.0088,190.3624 -89.2568,181.4344 -89.2568,171.6184 C-89.2568,161.9784 -87.0568,153.1304 -82.6408,145.0984 C-78.2408,137.0584 -72.2648,130.7544 -64.7128,126.1944 C-57.1688,121.6184 -48.9928,119.3384 -40.1688,119.3384 C-31.3608,119.3384 -23.2648,121.6184 -15.8888,126.1944 C-8.5128,130.7544 -2.7048,137.0584 1.5352,145.0984 C5.7752,153.1304 7.8952,161.9784 7.8952,171.6184 C7.8952,181.4344 5.7752,190.3624 1.5352,198.3944 C-2.7048,206.4264 -8.5128,212.7784 -15.8888,217.4264 Z M9.0152,91.9304 C-5.5928,83.9784 -21.9288,80.0024 -40.0008,80.0024 C-58.0728,80.0024 -74.4088,83.9784 -89.0088,91.9304 C-103.6248,99.8824 -115.1048,110.7944 -123.4648,124.6664 C-131.8168,138.5464 -136.0008,154.1064 -136.0008,171.3704 C-136.0008,188.7944 -131.8168,204.5704 -123.4648,218.6984 C-115.1048,232.8264 -103.6248,243.9064 -89.0088,251.9464 C-74.4088,259.9784 -58.0728,264.0024 -40.0008,264.0024 C-21.9288,264.0024 -5.5928,259.9384 9.0152,251.8184 C23.6232,243.6984 35.1032,232.6104 43.4632,218.5704 C51.8232,204.5304 55.9992,188.7944 55.9992,171.3704 C55.9992,154.1064 51.8232,138.5464 43.4632,124.6664 C35.1032,110.7944 23.6232,99.8824 9.0152,91.9304 Z" id="Combined-Shape" fill="#000000" opacity="0.2" filter="url(#filter-3)" mask="url(#mask-2)"></path>
                <path d="M585.710291,0 L568.977042,0 L557.130874,0 L549.986019,0 C550.20751,0 550.44329,0.0234 550.671925,0.0234 C527.351121,0.2106 517.432989,-2.17908217 499.972039,31.2 C482.814013,64 477.077636,88 457.102912,148.2 C439.983943,199.793302 414.233786,312 449.958058,312 L507.116893,312 C478.537475,312 507.116893,202.8 528.551456,132.6 C546.284985,74.5056 571.79926,16.4658 600,0" id="Fill-15" fill="#000000" opacity="0.15" filter="url(#filter-4)" mask="url(#mask-2)"></path>
                <path d="M272,280 C304,280 376,200.205128 410.776,121.756098 C439.387444,57.2133086 465.112,-8 480,-8 L456,-8 C426.224,-8 392.428012,63.9852316 352.336,135.414634 C320,193.025641 284.72,280 232,280" id="Fill-13" fill="#000000" opacity="0.15" filter="url(#filter-5)" mask="url(#mask-2)"></path>
            </g>
            <g id="Group-4" transform="translate(0.000000, 70.500000)" fill="#000000">
                <path d="M620.2928,118.7736 C616.3888,126.5576 610.9648,132.5656 604.0128,136.7896 C597.0608,141.0216 589.0928,143.1416 580.1088,143.1416 L548.5728,143.1416 L548.5728,40.6056 L577.8208,40.6056 C587.1408,40.6056 595.4528,42.7656 602.7408,47.0776 C610.0368,51.3976 615.7568,57.4376 619.9088,65.2296 C624.0688,73.0056 626.1408,81.9736 626.1408,92.1256 C626.1408,102.1096 624.1888,110.9896 620.2928,118.7736 M661.7488,45.3016 C653.7808,31.8536 642.6288,21.4056 628.3008,13.9576 C613.9728,6.5176 597.4848,2.7896 578.8368,2.7896 L502.0288,2.7896 L502.0288,180.7016 L577.0608,180.7016 C596.0448,180.7016 612.8768,176.9736 627.5408,169.5336 C642.2048,162.0936 653.5648,151.5976 661.6208,138.0616 C669.6688,124.5256 673.7008,109.0456 673.7008,91.6136 C673.7008,74.1896 669.7168,58.7576 661.7488,45.3016" id="Fill-1"></path>
                <path d="M264.1112,137.4264 C256.7352,142.0824 248.6392,144.4024 239.8312,144.4024 C231.0072,144.4024 222.8712,142.0824 215.4072,137.4264 C207.9512,132.7784 201.9752,126.4264 197.4792,118.3944 C192.9912,110.3624 190.7432,101.4344 190.7432,91.6184 C190.7432,81.9784 192.9432,73.1304 197.3592,65.0984 C201.7592,57.0584 207.7352,50.7544 215.2872,46.1944 C222.8312,41.6184 231.0072,39.3384 239.8312,39.3384 C248.6392,39.3384 256.7352,41.6184 264.1112,46.1944 C271.4872,50.7544 277.2952,57.0584 281.5352,65.0984 C285.7752,73.1304 287.8952,81.9784 287.8952,91.6184 C287.8952,101.4344 285.7752,110.3624 281.5352,118.3944 C277.2952,126.4264 271.4872,132.7784 264.1112,137.4264 Z M289.0152,11.9304 C274.4072,3.9784 258.0712,0.0024 239.9992,0.0024 C221.9272,0.0024 205.5912,3.9784 190.9912,11.9304 C176.3752,19.8824 164.8952,30.7944 156.5352,44.6664 C148.1832,58.5464 143.9992,74.1064 143.9992,91.3704 C143.9992,108.7944 148.1832,124.5704 156.5352,138.6984 C164.8952,152.8264 176.3752,163.9064 190.9912,171.9464 C205.5912,179.9784 221.9272,184.0024 239.9992,184.0024 C258.0712,184.0024 274.4072,179.9384 289.0152,171.8184 C303.6232,163.6984 315.1032,152.6104 323.4632,138.5704 C331.8232,124.5304 335.9992,108.7944 335.9992,91.3704 C335.9992,74.1064 331.8232,58.5464 323.4632,44.6664 C315.1032,30.7944 303.6232,19.8824 289.0152,11.9304 Z" id="Combined-Shape"></path>
                <polygon id="Fill-7" points="358.848 2.7928 405.392 2.7928 405.392 141.1128 480.92 141.1128 480.92 180.6968 358.848 180.6968"></polygon>
                <polygon id="Fill-8" points="5.68434189e-14 2.7928 133.264 2.7928 133.008 39.8408 46.536 39.8408 46.536 79.4408 126.4 79.4408 126.4 116.4888 46.536 116.4888 46.536 180.6968 5.68434189e-14 180.6968"></polygon>
                <path d="M852.7888,107.3552 C852.7888,118.5232 856.1008,127.4912 862.7088,134.2592 C869.3168,141.0192 877.7168,144.4112 887.8928,144.4112 C897.8928,144.4112 905.9808,141.0672 912.1808,134.3792 C918.3648,127.6992 921.4608,118.6912 921.4608,107.3552 L921.4608,2.7952 L967.9968,2.7952 L967.9968,107.3552 C967.9968,122.7472 964.7328,136.2432 958.2128,147.8352 C951.6768,159.4272 942.3568,168.3472 930.2368,174.6112 C918.1088,180.8672 903.9168,184.0032 887.6288,184.0032 C871.3568,184.0032 857.0688,180.8672 844.7808,174.6112 C832.4928,168.3472 822.9888,159.4272 816.2928,147.8352 C809.6048,136.2432 806.2528,122.7472 806.2528,107.3552 L806.2528,2.7952 L852.7888,2.7952 L852.7888,107.3552 Z" id="Fill-9"></path>
            </g>
            <g id="ALA-+-ARG-+-ASN-Mask" transform="translate(448.000000, 0.000000)">
                <mask id="mask-8" fill="white">
                    <use xlink:href="#path-7"></use>
                </mask>
                <use id="Mask" fill="url(#linearGradient-6)" xlink:href="#path-7"></use>
                <g id="A" opacity="0.2" style="mix-blend-mode: multiply;" mask="url(#mask-8)" transform="translate(81.234010, 291.080606) rotate(-40.000000) translate(-81.234010, -291.080606) " fill="#3B3F4B" fill-opacity="0.59728827">
                    <use filter="url(#filter-10)" xlink:href="#text-9"></use>
                    <use filter="url(#filter-11)" xlink:href="#text-9"></use>
                </g>
                <g id="Q" opacity="0.2" style="mix-blend-mode: multiply;" mask="url(#mask-8)" transform="translate(296.586252, 300.974010) rotate(-87.000000) translate(-296.586252, -300.974010) " fill="#3B3F4B" fill-opacity="0.59728827">
                    <use filter="url(#filter-13)" xlink:href="#text-12"></use>
                    <use filter="url(#filter-14)" xlink:href="#text-12"></use>
                </g>
                <g id="D" opacity="0.2" style="mix-blend-mode: multiply;" mask="url(#mask-8)" transform="translate(295.859819, 248.370744) rotate(-80.000000) translate(-295.859819, -248.370744) " fill="#3B3F4B" fill-opacity="0.59728827">
                    <use filter="url(#filter-16)" xlink:href="#text-15"></use>
                    <use filter="url(#filter-17)" xlink:href="#text-15"></use>
                </g>
                <g id="R" opacity="0.2" style="mix-blend-mode: multiply;" mask="url(#mask-8)" transform="translate(122.560803, 257.172086) rotate(-53.000000) translate(-122.560803, -257.172086) " fill="#3B3F4B" fill-opacity="0.59728827">
                    <use filter="url(#filter-19)" xlink:href="#text-18"></use>
                    <use filter="url(#filter-20)" xlink:href="#text-18"></use>
                </g>
                <g id="N" opacity="0.2" style="mix-blend-mode: multiply;" mask="url(#mask-8)" transform="translate(157.457459, 212.993116) rotate(-54.000000) translate(-157.457459, -212.993116) " fill="#3B3F4B" fill-opacity="0.59728827">
                    <use filter="url(#filter-22)" xlink:href="#text-21"></use>
                    <use filter="url(#filter-23)" xlink:href="#text-21"></use>
                </g>
                <g id="D" opacity="0.2" style="mix-blend-mode: multiply;" mask="url(#mask-8)" transform="translate(188.363448, 162.500000) rotate(-60.000000) translate(-188.363448, -162.500000) " fill="#3B3F4B" fill-opacity="0.59728827">
                    <use filter="url(#filter-25)" xlink:href="#text-24"></use>
                    <use filter="url(#filter-26)" xlink:href="#text-24"></use>
                </g>
                <g id="G" opacity="0.2" style="mix-blend-mode: multiply;" mask="url(#mask-8)" transform="translate(308.459296, 194.840925) rotate(-73.000000) translate(-308.459296, -194.840925) " fill="#3B3F4B" fill-opacity="0.59728827">
                    <use filter="url(#filter-28)" xlink:href="#text-27"></use>
                    <use filter="url(#filter-29)" xlink:href="#text-27"></use>
                </g>
                <g id="H" opacity="0.2" style="mix-blend-mode: multiply;" mask="url(#mask-8)" transform="translate(322.751667, 134.984614) rotate(-73.000000) translate(-322.751667, -134.984614) " fill="#3B3F4B" fill-opacity="0.59728827">
                    <use filter="url(#filter-31)" xlink:href="#text-30"></use>
                    <use filter="url(#filter-32)" xlink:href="#text-30"></use>
                </g>
                <g id="K" opacity="0.2" style="mix-blend-mode: multiply;" mask="url(#mask-8)" transform="translate(342.097021, 80.115190) rotate(-67.000000) translate(-342.097021, -80.115190) " fill="#3B3F4B" fill-opacity="0.59728827">
                    <use filter="url(#filter-34)" xlink:href="#text-33"></use>
                    <use filter="url(#filter-35)" xlink:href="#text-33"></use>
                </g>
                <g id="G" opacity="0.2" style="mix-blend-mode: multiply;" mask="url(#mask-8)" transform="translate(211.253451, 106.889559) rotate(-65.000000) translate(-211.253451, -106.889559) " fill="#3B3F4B" fill-opacity="0.59728827">
                    <use filter="url(#filter-37)" xlink:href="#text-36"></use>
                    <use filter="url(#filter-38)" xlink:href="#text-36"></use>
                </g>
                <g id="C" opacity="0.2" style="mix-blend-mode: multiply;" mask="url(#mask-8)" transform="translate(230.830832, 50.983251) rotate(-65.000000) translate(-230.830832, -50.983251) " fill="#3B3F4B" fill-opacity="0.59728827">
                    <use filter="url(#filter-40)" xlink:href="#text-39"></use>
                    <use filter="url(#filter-41)" xlink:href="#text-39"></use>
                </g>
                <g id="E" opacity="0.2" style="mix-blend-mode: multiply;" mask="url(#mask-8)" transform="translate(261.408214, 2.406308) rotate(-65.000000) translate(-261.408214, -2.406308) " fill="#3B3F4B" fill-opacity="0.59728827">
                    <use filter="url(#filter-43)" xlink:href="#text-42"></use>
                    <use filter="url(#filter-44)" xlink:href="#text-42"></use>
                </g>
                <g id="L" opacity="0.2" style="mix-blend-mode: multiply;" mask="url(#mask-8)" transform="translate(362.774287, 28.717482) rotate(-58.000000) translate(-362.774287, -28.717482) " fill="#3B3F4B" fill-opacity="0.59728827">
                    <use filter="url(#filter-46)" xlink:href="#text-45"></use>
                    <use filter="url(#filter-47)" xlink:href="#text-45"></use>
                </g>
                <g id="I" opacity="0.2" style="mix-blend-mode: multiply;" mask="url(#mask-8)" transform="translate(385.098687, -3.702175) rotate(-57.000000) translate(-385.098687, 3.702175) " fill="#3B3F4B" fill-opacity="0.59728827">
                    <use filter="url(#filter-49)" xlink:href="#text-48"></use>
                    <use filter="url(#filter-50)" xlink:href="#text-48"></use>
                </g>
            </g>
        </g>
    </g>
</svg>